<?xml version="1.0" standalone="no"?>
<!DOCTYPE svg PUBLIC "-//W3C//DTD SVG 20010904//EN"
 "http://www.w3.org/TR/2001/REC-SVG-20010904/DTD/svg10.dtd">
<svg version="1.0" xmlns="http://www.w3.org/2000/svg"
 width="1480.000000pt" height="1480.000000pt" viewBox="0 0 1480.000000 1480.000000"
 preserveAspectRatio="xMidYMid meet">
<metadata>
Created by potrace 1.14, written by Peter Selinger 2001-2017
</metadata>
<g transform="translate(0.000000,1480.000000) scale(0.100000,-0.100000)"
fill="#000000" stroke="none">
<path d="M7860 14278 c-140 -161 -234 -226 -495 -342 -268 -120 -319 -150
-417 -248 -84 -84 -179 -220 -229 -327 -70 -150 -79 -170 -79 -183 0 -8 -4
-18 -9 -23 -22 -25 -106 -313 -145 -500 -29 -142 -34 -155 -51 -155 -7 0 -33
24 -57 52 -83 102 -104 124 -243 263 -248 248 -432 391 -630 490 -72 36 -138
65 -147 65 -9 0 -19 4 -22 9 -3 5 -18 11 -33 14 -16 2 -55 12 -88 21 -33 10
-154 33 -270 52 -306 50 -415 84 -415 128 0 14 -42 56 -56 56 -5 0 -43 -80
-85 -178 l-75 -177 -55 -30 c-80 -44 -89 -52 -160 -140 -153 -190 -243 -400
-284 -665 -23 -149 -23 -495 0 -680 2 -19 7 -55 10 -80 6 -46 41 -249 49 -285
3 -11 13 -49 21 -85 9 -36 19 -75 21 -87 22 -111 117 -385 165 -475 16 -30 -3
-20 -81 43 -361 291 -916 588 -1225 655 -5 1 -21 5 -35 8 -179 38 -325 53
-495 50 -118 -2 -158 -5 -345 -24 -98 -11 -184 -13 -210 -7 -8 2 -32 12 -53
23 -38 18 -39 18 -53 0 -7 -10 -16 -39 -19 -65 -3 -25 -15 -73 -26 -106 -12
-33 -37 -104 -56 -157 -29 -84 -46 -152 -69 -283 -9 -52 -12 -361 -4 -406 4
-24 11 -66 14 -93 10 -74 70 -297 116 -431 173 -501 393 -837 773 -1184 63
-56 60 -78 -8 -72 -132 12 -307 4 -480 -20 -149 -20 -471 -115 -571 -167 -10
-5 -41 -20 -69 -33 -185 -86 -406 -230 -503 -327 -77 -78 -185 -230 -323 -452
-100 -160 -102 -165 -132 -255 -20 -62 -26 -70 -50 -73 -18 -2 -27 1 -27 11 0
8 -6 20 -14 26 -11 9 -14 8 -18 -6 -7 -30 3 -53 22 -53 40 0 237 -156 400
-316 209 -206 258 -250 389 -352 238 -185 595 -398 801 -478 25 -9 50 -21 55
-25 6 -4 48 -17 94 -29 79 -20 131 -44 131 -60 0 -4 -44 -40 -97 -81 -183
-139 -368 -338 -489 -525 -180 -280 -234 -514 -179 -789 40 -206 250 -554 378
-628 51 -30 318 -136 562 -224 397 -143 464 -156 730 -139 61 4 142 9 180 11
139 9 202 17 325 40 69 13 159 26 200 30 125 11 159 23 326 116 88 49 232 122
320 162 191 88 278 142 377 234 23 21 74 63 112 92 78 60 127 108 200 196 28
32 61 69 74 82 21 20 77 43 108 43 6 0 35 34 65 75 29 41 56 75 59 75 3 0 14
-6 24 -14 18 -13 18 -16 -16 -71 -18 -31 -41 -64 -49 -73 -36 -40 -104 -139
-214 -312 -65 -102 -151 -225 -191 -275 -80 -99 -111 -155 -174 -320 -24 -60
-52 -132 -62 -160 -11 -27 -55 -113 -98 -190 -44 -77 -88 -167 -99 -200 -30
-88 -98 -348 -118 -451 -25 -128 -25 -446 1 -568 2 -12 7 -41 10 -66 3 -25 14
-119 25 -210 39 -316 65 -410 284 -1034 97 -277 122 -333 151 -340 38 -10 53
3 64 55 19 90 74 174 135 207 24 13 56 17 141 17 98 0 121 4 210 34 55 18 204
84 330 146 315 154 317 155 330 155 18 0 205 170 205 186 0 3 26 48 58 102
172 285 370 801 442 1147 35 169 66 262 121 360 31 55 56 122 65 169 3 17 20
110 39 206 29 151 43 246 45 312 0 9 11 29 24 45 16 20 27 48 31 84 14 116 23
163 44 249 11 41 41 158 67 260 26 102 49 192 52 200 3 8 6 35 7 60 2 42 9
105 20 175 11 65 14 85 21 141 4 33 7 63 6 67 -6 22 21 48 46 45 28 -3 36 -26
21 -58 -4 -8 -10 -42 -13 -75 -4 -33 -9 -71 -11 -85 -2 -14 -6 -45 -10 -70 -6
-48 -14 -106 -21 -155 -6 -40 -34 -182 -48 -242 -31 -134 -91 -487 -101 -599
-3 -32 -8 -70 -10 -84 -5 -31 -16 -157 -21 -225 -14 -232 -18 -341 -19 -470 0
-133 3 -159 25 -225 24 -76 27 -114 21 -390 -2 -50 6 -89 33 -170 19 -58 43
-139 55 -180 84 -316 186 -512 361 -695 32 -33 86 -94 121 -135 157 -184 193
-211 424 -325 170 -82 242 -106 336 -110 96 -4 184 24 262 82 30 24 112 111
182 195 70 84 159 187 197 228 39 41 81 94 94 116 25 42 151 406 180 519 27
102 40 243 43 440 2 207 2 204 37 318 27 88 30 133 21 359 -7 164 -4 190 18
181 21 -7 37 -66 41 -147 4 -67 21 -176 30 -185 2 -2 12 3 23 13 17 15 19 15
40 -1 14 -12 23 -34 27 -67 7 -67 33 -114 87 -158 42 -35 141 -149 302 -348
134 -166 216 -229 455 -352 277 -142 343 -153 810 -133 351 14 416 3 546 -96
78 -60 138 -82 219 -83 l70 -1 3 41 c4 58 -22 163 -59 237 -17 34 -35 64 -39
67 -4 3 -17 25 -30 49 -22 44 -23 83 -4 226 23 181 23 577 -1 700 -39 206 -81
293 -205 413 -52 51 -114 107 -136 125 -44 33 -72 70 -156 200 -54 84 -122
154 -207 214 -71 49 -75 63 -19 63 60 -1 99 -17 208 -85 194 -120 290 -168
431 -213 96 -31 229 -71 258 -77 9 -2 74 -20 145 -39 128 -35 180 -44 280 -51
87 -7 171 -17 179 -22 9 -6 254 -5 302 1 94 11 152 19 170 22 11 3 36 7 55 10
68 10 266 63 355 94 155 55 286 125 506 272 l213 142 81 -3 c44 -1 93 -3 110
-5 16 -2 38 -1 48 3 14 6 4 16 -52 55 -39 26 -84 66 -100 88 -43 59 -103 209
-160 406 -53 180 -101 315 -152 429 -17 38 -31 70 -31 73 0 3 -9 17 -19 32
-10 14 -19 29 -19 33 0 7 -107 192 -122 210 -4 5 -43 57 -85 115 -43 58 -136
164 -208 236 -144 144 -140 141 -358 309 -86 66 -158 126 -162 134 -9 23 14
38 110 66 395 119 879 454 1137 788 145 187 228 362 276 584 l20 92 -29 27
c-29 28 -37 58 -20 69 5 3 17 27 26 54 9 27 22 55 30 61 25 21 31 114 7 108
-21 -6 -83 28 -127 69 -27 25 -72 57 -100 70 -96 47 -111 57 -310 189 -336
222 -539 328 -792 413 -140 48 -335 93 -450 105 -139 15 -159 18 -166 25 -4 4
18 24 50 43 115 72 354 316 484 494 212 289 403 695 453 959 25 129 16 315
-22 445 -33 116 -68 256 -77 310 -11 65 -48 205 -66 247 -31 72 -62 78 -176
32 -46 -18 -97 -31 -123 -31 -25 0 -180 0 -345 1 -165 0 -318 -1 -340 -3 -22
-2 -69 -7 -105 -10 -36 -4 -77 -8 -90 -11 -141 -27 -140 -27 -210 -45 -63 -15
-56 -13 -149 -44 -89 -29 -225 -83 -306 -122 -49 -24 -50 -24 -66 -5 -15 18
-14 29 12 143 80 346 95 750 44 1148 -4 30 -9 58 -11 61 -2 3 -6 20 -9 38 -26
147 -99 315 -171 396 -44 48 -54 73 -49 116 2 19 7 55 9 81 l6 46 -68 -1 c-37
0 -125 3 -197 8 -157 11 -487 12 -570 1 -33 -4 -91 -15 -130 -23 -38 -8 -80
-17 -93 -19 -13 -3 -83 -24 -155 -48 -332 -110 -549 -226 -959 -513 -84 -59
-117 -63 -119 -17 -1 13 -2 27 -3 32 -1 4 -6 32 -10 62 -4 30 -9 62 -11 70
-29 141 -44 196 -82 310 -50 149 -120 304 -176 393 -20 32 -37 60 -37 63 0 13
-149 206 -219 283 -105 117 -183 179 -346 276 -209 124 -206 121 -271 223 -32
51 -64 99 -69 108 -9 13 -20 5 -65 -48z m3057 -7764 c-3 -3 -12 -4 -19 -1 -8
3 -5 6 6 6 11 1 17 -2 13 -5z m152 -8 c104 -14 300 -54 320 -66 27 -16 -39
-12 -88 5 -24 9 -52 13 -62 10 -20 -7 -289 42 -302 54 -9 9 54 7 132 -3z"/>
</g>
</svg>
