<?xml version="1.0" standalone="no"?>
<!DOCTYPE svg PUBLIC "-//W3C//DTD SVG 20010904//EN"
 "http://www.w3.org/TR/2001/REC-SVG-20010904/DTD/svg10.dtd">
<svg version="1.0" xmlns="http://www.w3.org/2000/svg"
 width="1024.000000pt" height="1024.000000pt" viewBox="0 0 1024.000000 1024.000000"
 preserveAspectRatio="xMidYMid meet">
<metadata>
Created by potrace 1.14, written by Peter Selinger 2001-2017
</metadata>
<g transform="translate(0.000000,1024.000000) scale(0.100000,-0.100000)"
fill="#000000" stroke="none">
<path d="M5124 10063 c-62 -140 -88 -234 -88 -329 l-1 -90 -57 115 c-57 117
-171 301 -187 301 -4 0 -16 -33 -26 -72 -19 -84 -81 -269 -102 -312 -13 -24
-13 -56 -4 -218 11 -178 23 -299 37 -354 4 -13 2 -24 -4 -24 -39 0 -70 179
-73 430 l-2 155 -76 76 c-64 63 -141 119 -166 119 -20 0 8 -36 89 -114 l93
-91 7 -65 c4 -36 11 -130 16 -210 5 -80 13 -158 16 -175 7 -27 6 -29 -10 -16
-9 8 -14 16 -12 19 8 8 -45 85 -99 144 -113 122 -185 263 -185 363 0 61 -12
145 -20 145 -27 0 -54 -160 -47 -272 8 -117 32 -168 133 -276 60 -65 114 -108
248 -197 161 -107 291 -216 330 -276 22 -34 38 -89 25 -89 -5 0 -9 -11 -9 -23
0 -22 -3 -23 -45 -17 -24 4 -50 3 -57 -1 -7 -5 -8 -9 -3 -9 6 0 1 -7 -9 -15
-13 -10 -15 -15 -6 -15 9 0 8 -6 -5 -20 -10 -11 -24 -20 -31 -20 -8 0 -11 -6
-7 -17 5 -13 2 -15 -16 -10 -14 3 -24 0 -28 -9 -3 -10 -13 -12 -27 -8 -24 8
-24 7 -134 111 -96 91 -146 133 -159 133 -15 0 -54 46 -46 54 4 4 0 4 -10 0
-13 -5 -21 4 -36 39 -55 128 -111 353 -111 447 0 63 -51 190 -76 190 -31 0
-39 -43 -39 -205 0 -174 14 -275 51 -374 13 -35 22 -66 20 -68 -7 -7 -78 94
-164 232 -72 117 -101 177 -155 325 -19 51 -55 98 -77 101 -45 5 -82 -3 -101
-22 -20 -20 -21 -29 -17 -188 5 -211 -2 -195 215 -468 41 -51 77 -93 81 -93
17 -1 43 -30 37 -40 -4 -7 -11 -8 -18 -2 -7 6 -41 19 -77 30 -36 11 -99 36
-140 56 -41 20 -88 36 -104 36 -28 0 -28 -1 -12 -19 22 -24 11 -54 -18 -45
-30 9 -96 46 -96 54 0 4 -6 7 -12 8 -7 1 -35 6 -63 11 -27 5 -54 7 -58 4 -15
-9 14 -31 56 -42 23 -5 68 -27 100 -47 55 -34 60 -41 113 -152 81 -171 108
-195 320 -287 222 -97 255 -108 319 -109 40 -1 60 -5 61 -13 1 -7 2 -18 3 -24
0 -5 7 -7 14 -3 8 5 8 3 -2 -9 -7 -9 -17 -14 -22 -11 -5 3 -6 -2 -3 -10 4 -11
0 -16 -10 -16 -9 0 -16 -4 -16 -10 0 -5 -7 -7 -16 -3 -15 6 -15 8 2 20 14 10
15 13 2 13 -31 0 -58 -36 -58 -76 0 -22 -4 -45 -9 -53 -11 -17 -32 -5 -94 52
-22 19 -66 44 -100 56 -130 45 -176 66 -297 132 -133 73 -173 98 -153 99 6 0
15 -5 18 -10 4 -6 10 -8 15 -5 5 3 13 -3 19 -12 5 -10 13 -15 17 -11 4 4 1 14
-6 23 -16 19 -1 19 27 0 14 -10 24 -12 28 -5 3 5 0 10 -7 10 -9 0 -9 3 2 10 8
5 23 7 32 4 26 -8 40 4 29 25 -17 30 -120 69 -244 91 -194 34 -249 47 -322 79
-69 29 -102 28 -76 -3 7 -8 114 -65 239 -126 125 -62 247 -124 272 -139 108
-66 188 -110 222 -122 31 -11 35 -15 25 -30 -14 -22 -24 -25 -177 -43 -156
-19 -333 -46 -339 -52 -2 -2 97 -4 220 -4 154 0 250 5 309 15 142 25 167 22
246 -31 38 -26 113 -68 167 -95 53 -27 97 -54 97 -60 0 -6 -25 -9 -71 -6 -71
4 -72 5 -114 52 -33 38 -49 49 -79 52 -21 2 -43 0 -50 -6 -10 -8 -119 -15
-206 -12 -19 1 -79 3 -132 4 -62 1 -102 7 -110 15 -9 9 -7 12 14 12 15 0 30 5
33 11 9 14 -404 4 -418 -10 -7 -7 -6 -12 4 -15 8 -3 44 -16 81 -30 56 -21 72
-23 107 -14 43 11 70 6 161 -27 25 -9 72 -23 105 -30 59 -13 59 -13 18 -14
-38 -1 -228 31 -271 46 -12 4 -11 1 4 -11 56 -41 277 -106 504 -147 96 -17
178 -36 182 -42 3 -5 2 -20 -3 -31 -8 -20 -96 -319 -144 -492 -26 -93 -62
-364 -73 -543 l-7 -123 -147 -2 c-80 0 -150 -5 -154 -9 -19 -19 29 -27 158
-27 l136 0 6 -82 c11 -161 21 -640 13 -645 -6 -3 -208 -30 -252 -33 -5 0 1
-10 14 -21 22 -18 38 -20 135 -19 61 1 117 1 124 1 8 -1 12 -19 12 -55 0 -30
7 -135 16 -232 8 -101 11 -181 6 -186 -5 -5 -67 -2 -146 7 -153 17 -216 19
-216 7 0 -25 94 -45 277 -58 51 -3 96 -11 101 -18 5 -6 12 -45 16 -86 7 -75
18 -208 56 -642 11 -125 23 -234 26 -243 3 -8 0 -17 -7 -19 -8 -3 -300 -7
-649 -11 -349 -3 -651 -9 -670 -13 -31 -7 -35 -12 -38 -43 -2 -20 8 -112 22
-205 14 -93 43 -292 66 -443 37 -255 90 -511 200 -966 38 -156 115 -421 210
-720 21 -66 73 -257 115 -425 42 -168 89 -348 105 -400 16 -52 39 -135 51
-185 26 -113 69 -224 115 -301 87 -145 100 -149 559 -184 398 -29 632 -34
1137 -22 277 7 616 19 753 26 138 8 351 20 475 26 197 9 365 30 393 47 29 18
120 267 187 511 22 81 63 217 91 302 28 85 76 241 106 345 61 214 214 682 299
915 31 85 79 223 106 305 27 83 71 209 98 280 90 244 339 1139 323 1167 -2 3
-18 2 -36 -3 -18 -5 -358 -9 -799 -9 l-768 0 0 28 c0 35 27 313 45 467 7 66
17 158 20 205 9 118 9 118 61 126 24 3 47 11 51 17 9 15 -27 37 -63 37 -25 0
-33 5 -36 23 -2 12 2 150 9 307 7 157 16 370 20 475 7 157 11 190 23 192 62 8
90 15 85 23 -3 5 -1 11 5 15 19 12 10 23 -24 29 -20 4 -37 14 -40 24 -3 9 -10
139 -16 287 -10 264 -31 565 -51 735 -5 47 -13 109 -16 138 l-6 52 29 0 c16
-1 61 -5 99 -11 39 -5 77 -10 85 -11 8 -1 24 -7 35 -14 25 -18 62 -18 72 -1 4
7 34 28 66 46 60 34 72 50 21 30 -39 -16 -50 -19 -119 -30 -65 -11 -201 -5
-219 10 -6 5 -24 11 -41 13 l-30 3 -6 85 c-8 109 -51 337 -77 415 -22 64 -21
70 19 80 19 5 31 0 50 -18 44 -43 110 -69 144 -57 18 7 17 9 -10 15 -40 10
-118 50 -133 68 -15 18 -9 24 138 120 63 42 140 100 171 130 55 52 118 88 224
128 28 11 56 23 64 28 18 12 22 101 5 108 -20 8 -290 -37 -352 -58 -31 -11
-67 -26 -80 -35 -22 -15 -48 -11 -26 4 5 4 43 30 84 58 81 56 212 185 277 274
63 86 144 245 164 324 10 39 19 75 19 79 0 17 -217 -30 -274 -60 -45 -23 -194
-63 -237 -63 -20 0 -62 -11 -93 -25 -97 -43 -103 -36 -43 48 57 79 70 110 113
257 15 52 42 126 60 164 34 69 42 106 25 106 -21 0 -92 -98 -190 -262 -124
-205 -210 -323 -321 -438 l-81 -85 5 45 c18 147 25 169 95 310 42 84 80 177
92 224 11 45 37 133 58 196 50 150 54 175 35 195 -9 8 -22 15 -30 15 -56 0
-150 -77 -239 -195 -53 -71 -82 -101 -89 -94 -3 2 -9 81 -15 174 -6 94 -16
205 -23 248 -11 75 -12 77 -40 77 -16 0 -48 -10 -71 -21 -72 -37 -231 -165
-257 -208 -14 -22 -27 -41 -30 -41 -11 0 -68 97 -83 142 -19 55 -11 93 28 140
35 41 20 57 -30 34 -22 -11 -48 -36 -66 -64 -33 -54 -124 -182 -157 -223 -12
-15 -39 -61 -59 -101 -48 -96 -141 -251 -184 -309 -19 -25 -41 -56 -49 -69 -8
-12 -20 -28 -25 -34 -6 -6 -37 -66 -70 -133 -33 -67 -64 -122 -68 -122 -5 -1
-6 3 -3 8 10 16 -6 42 -21 37 -33 -13 -72 35 -137 167 -101 209 -136 315 -136
412 0 75 27 244 42 262 16 20 38 -3 38 -41 1 -17 7 -60 15 -96 17 -79 18 -83
5 -75 -14 9 -12 -57 3 -76 31 -41 109 -131 185 -213 88 -96 90 -100 78 -161
-5 -25 -5 -27 4 -10 9 18 10 17 7 -8 -4 -22 -2 -25 9 -16 8 6 14 18 14 26 0 8
14 32 30 53 17 21 53 82 81 137 62 119 167 302 186 324 11 13 8 34 -16 132
-29 111 -46 155 -73 187 -27 31 -56 51 -82 56 l-27 5 40 -63 c22 -35 47 -90
57 -123 14 -52 15 -70 5 -137 -15 -95 -40 -173 -92 -287 -30 -65 -42 -82 -49
-71 -6 8 -26 65 -46 125 -51 153 -50 240 1 393 21 59 45 121 55 137 15 25 16
33 6 48 -22 28 -35 20 -62 -40z m1009 -235 c15 -260 4 -400 -37 -448 -28 -34
-26 -52 10 -68 13 -7 24 -18 24 -27 0 -19 -5 -19 -35 1 -24 16 -45 58 -52 107
-2 16 -17 71 -33 123 -50 160 -71 170 -26 13 41 -145 48 -190 32 -203 -81 -63
-125 -96 -146 -109 l-25 -16 2 217 c2 119 8 234 13 254 15 52 96 147 183 213
39 30 75 55 78 55 3 0 9 -51 12 -112z m-1253 -35 c13 -27 52 -99 86 -160 35
-62 61 -113 59 -113 -5 0 -75 99 -75 106 0 4 -24 50 -52 103 -29 53 -59 110
-66 126 -12 30 -12 30 5 8 10 -13 29 -44 43 -70z m757 35 c-28 -271 -29 -304
-18 -432 6 -72 14 -194 17 -271 l7 -140 -46 -60 c-25 -33 -63 -76 -84 -96 -57
-53 -172 -149 -179 -149 -15 0 7 23 86 89 83 70 119 111 88 99 -10 -4 -14 1
-14 16 1 11 -3 20 -9 19 -41 -6 -52 -10 -64 -21 -7 -7 -19 -11 -25 -9 -45 19
-49 20 -42 9 9 -15 -7 -15 -22 0 -8 8 -15 8 -26 -1 -16 -13 -85 -12 -103 2
-15 11 -18 -4 -3 -19 6 -6 -7 -9 -37 -9 -29 0 -48 5 -51 13 -3 9 -7 10 -17 2
-7 -6 -18 -9 -25 -8 -7 2 -18 -15 -25 -37 -23 -71 -16 -12 10 80 28 104 73
195 193 393 120 198 374 582 385 582 5 0 7 -24 4 -52z m67 -105 l36 -57 0
-292 c0 -272 -1 -293 -19 -315 l-19 -24 -6 55 c-22 207 -36 420 -36 544 0 80
2 146 4 146 3 0 21 -26 40 -57z m-369 -50 c-9 -15 -14 -20 -11 -10 4 11 9 31
13 45 5 19 8 22 11 10 2 -9 -4 -29 -13 -45z m1198 43 c8 -20 -16 -118 -63
-260 -22 -65 -40 -123 -40 -127 0 -5 -17 -46 -38 -91 -21 -46 -52 -114 -68
-151 l-29 -69 -6 64 c-11 111 -10 348 2 348 6 0 8 8 5 18 -13 45 84 193 165
252 46 33 64 37 72 16z m-2749 -195 c34 -14 96 -127 88 -163 -1 -5 3 -8 9 -8
5 0 7 -4 4 -10 -3 -5 -2 -10 3 -10 4 0 16 -16 25 -35 20 -42 21 -49 5 -39 -7
4 -8 3 -4 -5 4 -6 11 -9 16 -6 4 3 29 -30 54 -72 25 -43 57 -97 71 -120 32
-52 20 -57 -14 -6 -15 24 -26 32 -31 24 -6 -11 -27 18 -113 164 -10 17 -28 50
-40 75 -12 25 -26 48 -32 52 -5 4 -10 13 -10 19 0 6 -10 18 -22 27 -21 13 -23
13 -23 -3 0 -26 169 -416 241 -557 13 -26 11 -58 -4 -58 -8 0 -27 24 -42 53
-16 28 -53 92 -83 140 -102 167 -145 279 -160 427 -12 114 -1 134 62 111z
m1371 -181 c0 -3 3 -10 7 -15 4 -6 3 -17 -3 -25 -7 -12 -9 -12 -9 4 0 10 -11
31 -25 48 -14 16 -25 35 -25 41 0 7 -9 23 -20 37 -11 14 -20 29 -20 35 0 9 94
-115 95 -125z m1032 48 c-3 -8 -6 -5 -6 6 -1 11 2 17 5 13 3 -3 4 -12 1 -19z
m542 -117 c-46 -122 -134 -262 -190 -302 -16 -11 -29 -18 -29 -14 0 9 30 55
66 100 17 22 62 92 100 157 38 64 70 115 71 114 2 -1 -7 -26 -18 -55z m-697
-19 c5 -17 22 -40 38 -52 36 -25 38 -53 15 -175 -17 -87 -90 -279 -139 -363
-17 -29 -36 -62 -42 -72 -12 -22 -102 -109 -159 -154 -74 -59 -138 -74 -149
-33 -4 16 -8 19 -15 9 -4 -7 -14 -15 -22 -16 -8 -1 -25 -8 -39 -14 -14 -5 -32
-13 -40 -16 -8 -3 -23 -10 -32 -16 -45 -25 -57 -31 -110 -57 -44 -20 -55 -29
-47 -39 12 -15 -5 -29 -23 -18 -7 4 -8 3 -4 -4 5 -8 -2 -12 -19 -12 -22 0 -25
-3 -20 -20 9 -28 -30 -80 -59 -80 -12 0 -27 -5 -34 -12 -18 -18 -43 -18 -60
-2 -21 22 -18 123 7 204 27 91 29 104 13 116 -12 8 -5 17 34 42 94 60 287 208
369 282 91 82 156 158 228 265 61 92 90 123 162 172 33 22 73 55 90 72 34 37
46 36 57 -7z m188 19 c0 -11 5 -21 11 -23 16 -5 31 -289 19 -363 -19 -112 -21
-119 -31 -104 -7 11 -9 9 -9 -8 0 -12 5 -23 11 -25 6 -2 2 -14 -10 -28 -14
-16 -19 -19 -15 -7 3 9 1 17 -5 17 -6 0 -11 7 -11 15 0 15 -19 14 -67 0 -9 -3
-10 3 -3 20 11 29 3 58 -14 48 -6 -4 -6 0 2 9 7 9 14 29 16 44 8 60 19 110 28
128 6 10 10 46 9 80 -1 82 36 216 61 216 4 0 8 -9 8 -19z m983 -289 c-67 -105
-400 -452 -413 -431 -6 8 -13 8 -27 0 -11 -6 -30 -8 -42 -6 -14 3 -26 -4 -37
-21 -9 -13 -25 -24 -35 -24 -11 0 -19 -6 -19 -13 0 -14 -108 -67 -170 -84 -19
-6 -55 -16 -80 -23 -46 -13 -95 -29 -189 -61 -61 -21 -81 -24 -81 -9 0 6 9 10
20 10 11 0 20 4 20 9 0 9 113 66 275 139 74 33 267 93 308 95 29 2 19 16 -18
23 -50 9 -157 -18 -320 -82 -133 -52 -157 -63 -197 -88 -18 -11 -28 -6 -32 16
-2 7 -6 21 -10 30 -8 18 9 58 24 58 6 0 10 5 10 10 0 6 35 45 77 87 58 57 78
84 79 105 2 32 -9 36 -28 11 -8 -10 -29 -31 -47 -48 -24 -22 -31 -24 -23 -10
17 34 133 139 207 188 64 43 88 52 250 91 99 25 221 52 270 60 50 9 128 29
175 44 l85 29 3 -23 c2 -14 -12 -47 -35 -82z m-2472 71 c13 -16 12 -17 -3 -4
-10 7 -18 15 -18 17 0 8 8 3 21 -13z m599 -183 c0 -5 -2 -10 -4 -10 -3 0 -8 5
-11 10 -3 6 -1 10 4 10 6 0 11 -4 11 -10z m-220 -18 c0 -5 -7 -9 -15 -9 -8 0
-12 4 -9 9 3 4 9 8 15 8 5 0 9 -4 9 -8z m40 -27 c-7 -8 -17 -15 -22 -15 -6 0
-5 7 2 15 7 8 17 15 22 15 6 0 5 -7 -2 -15z m-1318 -64 c30 -10 122 -33 204
-50 82 -17 174 -38 204 -47 30 -9 82 -22 115 -28 40 -9 53 -15 40 -18 -16 -5
-14 -6 8 -7 37 -1 34 -18 -4 -19 -33 -1 -59 -17 -59 -38 0 -25 -22 -62 -43
-71 l-22 -10 23 -12 c29 -16 28 -31 -3 -29 -14 1 -25 6 -25 11 0 5 -7 4 -15
-3 -12 -10 -15 -9 -15 5 0 15 -2 15 -16 4 -20 -17 -107 -22 -98 -6 5 9 4 9 -6
0 -9 -8 -20 -9 -38 -2 -13 5 -27 7 -30 5 -2 -3 -17 3 -32 14 -16 11 -35 20
-44 20 -9 0 -16 5 -16 11 0 6 -5 9 -12 7 -6 -2 -20 4 -30 14 -10 10 -24 16
-31 12 -7 -4 -9 -4 -5 1 5 5 -2 13 -15 19 -12 7 -23 18 -23 26 -1 8 -3 18 -4
23 -1 4 -3 10 -4 15 -1 4 -9 24 -19 45 -17 35 -48 127 -43 127 2 0 28 -9 58
-19z m1459 -111 c-13 -11 -29 -20 -36 -20 -7 0 -15 -7 -19 -15 -3 -8 -11 -15
-18 -15 -18 1 40 50 58 50 8 0 14 5 14 10 0 6 6 10 13 10 6 -1 1 -10 -12 -20z
m872 6 c-17 -30 -156 -186 -166 -186 -5 0 12 24 39 53 27 29 66 74 87 100 37
46 56 61 40 33z m-1708 -34 c-3 -3 -11 0 -18 7 -9 10 -8 11 6 5 10 -3 15 -9
12 -12z m45 5 c8 -7 22 -21 30 -32 14 -19 14 -19 -5 -4 -11 9 -28 19 -37 22
-10 4 -18 11 -18 17 0 13 11 12 30 -3z m1724 1 c-12 -20 -121 -160 -151 -195
-54 -61 -208 -173 -238 -173 -4 0 20 20 53 45 34 25 123 111 199 190 76 79
139 144 141 145 2 0 0 -6 -4 -12z m-1464 -62 c0 -3 -4 -8 -10 -11 -5 -3 -10
-1 -10 4 0 6 5 11 10 11 6 0 10 -2 10 -4z m364 -45 c-17 -15 -38 -38 -48 -52
l-18 -24 7 25 c7 26 75 93 85 84 3 -3 -9 -18 -26 -33z m1585 -79 c-14 -23 -85
-73 -92 -65 -6 6 82 83 95 83 5 0 3 -8 -3 -18z m465 -4 c-5 -8 3 -9 27 -5 l34
6 -34 -15 c-44 -20 -151 -47 -158 -40 -3 2 12 8 33 12 44 8 97 33 74 34 -10 1
-9 4 5 10 27 12 27 12 19 -2z m-604 -104 c-8 -8 -23 -20 -34 -25 -15 -7 -13
-3 7 15 31 29 47 35 27 10z m-745 -14 c-10 -11 -22 -20 -28 -20 -5 0 1 9 14
20 31 25 37 25 14 0z m-951 -135 c23 -35 20 -38 -9 -9 -27 27 -30 34 -16 34 5
0 16 -11 25 -25z m501 -134 c-17 -16 -166 -93 -171 -88 -3 3 32 25 78 51 79
43 114 57 93 37z m442 -216 c27 -8 58 -25 69 -37 10 -12 13 -18 7 -14 -19 10
-16 -4 5 -27 17 -19 17 -19 -13 -4 -16 8 -45 27 -64 41 -18 14 -46 28 -62 31
-16 4 -27 11 -23 16 7 12 22 11 81 -6z m-1130 -100 c47 -26 95 -27 181 -5 30
8 33 7 27 -8 -4 -9 -23 -62 -42 -117 -40 -115 -52 -232 -53 -517 0 -92 -4
-177 -9 -190 -7 -19 -23 -28 -70 -41 -69 -19 -73 -29 -40 -84 14 -22 19 -42
15 -58 -3 -13 -2 -27 4 -30 15 -10 12 -23 -7 -28 -12 -3 -10 -5 7 -6 14 -1 32
-6 40 -11 20 -13 6 -12 -65 5 -69 17 -124 20 -109 6 5 -5 50 -30 99 -55 50
-26 104 -57 120 -70 l30 -24 0 -749 c0 -411 -4 -753 -8 -760 -12 -17 2 -73 19
-80 8 -3 14 -19 14 -38 l0 -32 -69 -1 c-86 0 -131 -10 -131 -26 0 -9 23 -15
75 -18 42 -3 78 -8 82 -12 4 -4 11 -71 14 -149 15 -299 19 -451 11 -433 -8 18
-9 18 -15 3 -6 -15 -29 -17 -216 -17 -129 0 -212 -4 -216 -10 -3 -5 -35 -10
-71 -10 -44 0 -63 4 -59 11 4 6 26 10 49 9 68 -3 76 -1 76 19 0 28 -28 45 -70
44 l-38 -2 -11 147 c-7 81 -16 188 -21 237 -12 114 -36 437 -50 665 -6 96 -15
225 -20 285 -15 173 -14 189 15 205 36 19 33 41 -4 34 l-29 -6 -5 88 c-2 49
-3 292 -2 539 2 337 7 484 19 585 21 173 23 186 52 240 13 25 35 71 48 103 38
88 114 207 163 255 24 23 43 52 43 62 0 12 18 33 43 51 37 27 47 30 90 25 27
-3 69 -17 94 -31z m879 0 c130 -38 191 -196 218 -570 9 -115 17 -231 19 -257
l4 -47 -61 5 c-111 10 -126 9 -126 -9 0 -16 27 -30 90 -47 25 -7 61 -21 81
-31 l36 -18 -4 -77 c-4 -55 -2 -74 6 -69 14 8 10 -17 -4 -27 -6 -5 -5 -8 3 -8
6 0 12 -5 12 -11 0 -5 -4 -7 -10 -4 -5 3 -10 1 -10 -4 0 -6 6 -11 13 -12 10 0
10 -2 0 -6 -7 -2 -13 -9 -13 -14 0 -6 5 -7 10 -4 6 3 10 1 10 -4 0 -6 -4 -11
-10 -11 -5 0 -10 -5 -10 -11 0 -5 4 -8 8 -5 5 3 9 -8 9 -24 0 -17 -5 -30 -11
-30 -6 0 -5 -4 3 -9 7 -5 10 -14 6 -20 -12 -21 -6 -394 8 -404 9 -7 9 -10 0
-14 -9 -3 -13 -31 -13 -90 0 -77 -2 -85 -21 -90 -12 -3 -18 -11 -15 -19 7 -18
-6 -18 -70 3 -30 9 -56 14 -60 11 -14 -15 11 -50 49 -70 23 -11 67 -39 98 -60
55 -39 56 -40 49 -78 -4 -22 -8 -76 -9 -122 -3 -122 -21 -123 -23 -2 -1 77 -3
89 -8 54 l-7 -45 -3 43 c-3 46 -3 50 -14 73 -9 20 -46 14 -46 -8 0 -8 4 -12 8
-9 5 3 9 -1 9 -9 0 -8 -3 -15 -6 -15 -4 0 -8 -51 -9 -112 -2 -62 -5 -120 -8
-130 -3 -9 -1 -19 4 -22 5 -3 8 -23 7 -43 -5 -62 -15 -268 -21 -413 -3 -74 -7
-169 -9 -210 -3 -41 -5 -155 -5 -252 l-1 -177 -267 -3 c-147 -2 -284 1 -304 6
-32 7 -38 13 -38 35 0 20 3 22 9 12 8 -12 11 -10 15 10 10 39 3 90 -11 84 -16
-6 -16 -2 2 42 8 19 15 39 15 44 0 5 -7 9 -15 9 -8 0 -15 5 -15 11 0 5 4 8 9
5 17 -11 18 19 2 31 -12 9 -13 12 -2 13 10 0 9 6 -4 27 -17 25 -17 26 1 19 10
-4 15 -4 11 0 -4 4 -1 14 6 22 10 13 9 15 -5 10 -22 -9 -34 33 -12 45 10 6 14
21 12 52 -2 24 -6 41 -10 38 -5 -2 -8 1 -8 6 0 6 5 11 10 11 14 0 12 54 -2 68
-9 9 -9 12 3 12 18 0 21 67 4 86 -14 17 -33 -7 -33 -42 0 -16 -3 -157 -6 -314
-5 -211 -3 -291 5 -307 14 -26 13 -29 -21 -38 l-25 -6 3 357 c4 390 1 374 65
437 20 19 38 27 63 27 41 0 74 15 74 33 0 9 -21 13 -72 13 -43 0 -63 -2 -48
-6 23 -6 21 -8 -15 -14 -22 -4 -53 -12 -69 -17 -16 -5 -30 -8 -32 -7 -1 2 -5
210 -8 463 -7 446 -9 551 -25 910 -4 103 -3 183 3 203 7 23 6 39 -4 57 -32 59
18 1030 51 1009 5 -3 6 15 3 40 l-6 44 83 -5 c46 -3 85 -10 87 -14 2 -4 15 -3
30 2 75 29 263 36 338 14z m404 -20 c11 -2 27 -10 35 -17 8 -7 38 -31 67 -52
54 -39 97 -86 80 -86 -5 0 -29 17 -53 38 -24 21 -72 57 -106 81 -35 23 -63 44
-63 47 0 3 4 2 10 -1 5 -3 19 -8 30 -10z m-123 -1547 c-3 -8 -6 -5 -6 6 -1 11
2 17 5 13 3 -3 4 -12 1 -19z m0 -90 c-3 -8 -6 -5 -6 6 -1 11 2 17 5 13 3 -3 4
-12 1 -19z m419 -1015 c7 -29 17 -41 42 -52 36 -16 40 -43 7 -50 -24 -4 -95
74 -95 104 0 49 34 47 46 -2z m-1146 -194 c0 -11 -4 -18 -10 -14 -5 3 -7 12
-3 20 7 21 13 19 13 -6z m10 -565 c0 -8 -4 -14 -8 -14 -4 0 -8 9 -8 19 0 11 4
17 8 15 4 -3 8 -12 8 -20z m1356 -89 c16 -13 17 -16 4 -25 -8 -5 -21 -8 -28
-5 -8 3 -22 5 -33 5 -21 0 -26 25 -6 33 23 10 43 7 63 -8z m-1236 -281 c157 0
339 -4 405 -8 66 -4 177 -9 247 -11 69 -1 132 -6 139 -10 7 -5 10 -4 6 1 -3 5
32 6 86 3 112 -8 170 -18 180 -33 5 -8 10 -7 16 3 7 11 24 12 77 7 38 -4 73
-11 79 -16 6 -5 27 -11 45 -12 30 -3 34 0 35 22 0 24 3 25 65 28 76 4 102 -2
126 -25 13 -13 18 -15 22 -5 3 10 10 9 30 -4 23 -15 25 -15 19 0 -7 17 1 20
27 10 9 -3 16 -12 16 -20 0 -8 7 -14 16 -14 10 0 14 6 10 15 -3 8 -4 15 -2 15
3 0 12 3 20 6 14 5 15 2 6 -20 -9 -24 -7 -26 18 -28 52 -3 57 -4 69 -11 6 -4
13 -1 16 5 2 7 4 1 3 -14 -1 -26 -16 -42 -16 -17 0 5 -4 7 -10 4 -24 -15 -9
-32 28 -32 61 -1 73 -3 69 -10 -3 -5 1 -14 9 -21 12 -11 14 -10 14 3 0 22 27
18 33 -5 4 -14 14 -20 35 -20 36 0 48 -13 27 -30 -12 -10 -15 -10 -15 1 0 11
-2 11 -10 -1 -13 -21 -12 -31 3 -29 6 1 22 1 34 0 20 -1 21 -4 13 -26 -6 -16
-6 -25 0 -25 6 0 10 6 11 13 0 6 5 2 11 -10 11 -23 28 -31 28 -13 0 5 8 6 17
3 11 -4 12 -8 5 -11 -7 -2 -12 -11 -12 -19 0 -9 6 -13 15 -10 8 4 17 2 20 -3
4 -6 -3 -10 -15 -10 -13 0 -19 -4 -14 -12 4 -6 3 -8 -3 -5 -6 4 -16 0 -23 -8
-11 -13 -8 -15 17 -15 22 0 33 -7 41 -24 6 -14 19 -27 29 -29 10 -3 0 -3 -22
-1 -22 1 -41 7 -43 12 -2 6 -12 7 -24 4 -16 -4 -19 -2 -13 8 5 8 4 11 -3 6 -6
-3 -28 0 -49 8 -118 46 -186 57 -393 63 -189 5 -213 4 -310 -17 -162 -35 -315
-108 -393 -188 -25 -26 -71 -72 -101 -104 -31 -31 -56 -59 -56 -61 0 -3 -23
-39 -50 -81 -48 -71 -122 -217 -140 -275 -15 -46 -50 -145 -60 -166 -25 -53
-146 -409 -170 -500 -51 -191 -71 -258 -84 -283 -7 -15 -37 -84 -65 -154 -58
-143 -137 -298 -189 -372 -136 -195 -223 -294 -347 -396 -114 -93 -211 -151
-467 -279 -218 -108 -254 -123 -345 -141 -155 -31 -156 -31 -197 40 -43 73
-84 167 -124 285 -55 159 -211 706 -256 895 -52 218 -116 501 -150 665 -20 94
-47 193 -60 220 -32 66 -59 151 -96 299 -47 188 -137 739 -144 879 l-4 78 42
-2 c23 -2 46 0 51 2 11 6 119 12 209 12 48 0 61 -3 75 -21 23 -31 133 -50 316
-55 175 -5 290 5 383 32 38 11 117 22 182 26 160 9 502 43 553 55 73 17 91 17
117 1 21 -14 69 -16 310 -17z m1810 -128 c0 -3 -4 -8 -10 -11 -5 -3 -10 -1
-10 4 0 6 5 11 10 11 6 0 10 -2 10 -4z m250 -136 c18 -12 2 -12 -25 0 -13 6
-15 9 -5 9 8 0 22 -4 30 -9z m324 -162 c-8 -39 -37 -85 -42 -69 -2 6 4 18 12
27 18 17 21 34 6 34 -5 0 -2 9 7 20 23 27 26 25 17 -12z m-97 -74 c37 -10 35
-31 -3 -32 -28 -1 -34 2 -34 18 0 22 3 23 37 14z m-1377 -306 c0 -4 -9 -12
-21 -19 -32 -16 -43 3 -18 30 17 18 23 20 30 9 5 -7 9 -16 9 -20z m-330 -472
c0 -3 -4 -8 -10 -11 -5 -3 -10 -1 -10 4 0 6 5 11 10 11 6 0 10 -2 10 -4z m-10
-56 c0 -5 -7 -10 -16 -10 -8 0 -12 5 -9 10 3 6 10 10 16 10 5 0 9 -4 9 -10z
m-30 -69 c0 -6 -4 -13 -10 -16 -5 -3 -10 1 -10 9 0 9 5 16 10 16 6 0 10 -4 10
-9z m-55 -81 c3 -5 1 -10 -4 -10 -6 0 -11 5 -11 10 0 6 2 10 4 10 3 0 8 -4 11
-10z m-65 -180 c0 -5 -5 -10 -11 -10 -5 0 -7 5 -4 10 3 6 8 10 11 10 2 0 4 -4
4 -10z m-23 -42 c-3 -8 -6 -5 -6 6 -1 11 2 17 5 13 3 -3 4 -12 1 -19z m-16
-41 c-10 -9 -11 -8 -5 6 3 10 9 15 12 12 3 -3 0 -11 -7 -18z m-1 -33 c0 -8 -4
-12 -10 -9 -5 3 -10 10 -10 16 0 5 5 9 10 9 6 0 10 -7 10 -16z m-104 -272
c-11 -10 -15 4 -8 28 l7 25 3 -23 c2 -13 1 -26 -2 -30z m-28 -47 c-6 -14 -13
-24 -14 -22 -6 6 9 47 17 47 5 0 3 -11 -3 -25z m-22 -62 c-10 -10 -19 5 -10
18 6 11 8 11 12 0 2 -7 1 -15 -2 -18z"/>
<path d="M6326 9377 c3 -10 9 -15 12 -12 3 3 0 11 -7 18 -10 9 -11 8 -5 -6z"/>
<path d="M5262 8518 c-7 -7 -12 -18 -12 -25 0 -11 4 -11 20 -1 11 7 20 18 20
25 0 16 -12 17 -28 1z"/>
<path d="M4310 8551 c0 -5 5 -13 10 -16 6 -3 10 -2 10 4 0 5 -4 13 -10 16 -5
3 -10 2 -10 -4z"/>
<path d="M4268 8493 c7 -3 16 -2 19 1 4 3 -2 6 -13 5 -11 0 -14 -3 -6 -6z"/>
<path d="M5844 7806 c11 -9 24 -16 30 -16 12 0 7 5 -24 19 -24 11 -24 11 -6
-3z"/>
<path d="M5742 6722 c-8 -5 -10 -21 -7 -43 3 -19 6 -42 6 -51 0 -22 22 -23 43
-2 21 20 20 31 -1 43 -17 10 -17 10 0 11 9 0 17 7 17 16 0 11 -5 14 -16 10
-12 -4 -15 -2 -10 9 6 16 -11 20 -32 7z"/>
<path d="M5767 6443 c-4 -3 -7 -11 -7 -17 0 -6 5 -5 12 2 6 6 9 14 7 17 -3 3
-9 2 -12 -2z"/>
<path d="M5760 6400 c0 -5 5 -10 11 -10 5 0 7 -5 3 -12 -4 -7 -3 -8 5 -4 9 6
9 11 0 22 -14 17 -19 18 -19 4z"/>
<path d="M5380 6100 c-12 -8 -12 -10 2 -15 19 -7 38 1 38 16 0 12 -21 11 -40
-1z"/>
<path d="M5030 5041 c0 -5 9 -7 20 -4 11 3 20 7 20 9 0 2 -9 4 -20 4 -11 0
-20 -4 -20 -9z"/>
<path d="M5643 4306 c0 -8 6 -12 14 -9 7 3 10 9 7 14 -8 14 -21 11 -21 -5z"/>
<path d="M7010 3750 c0 -5 4 -10 9 -10 6 0 13 5 16 10 3 6 -1 10 -9 10 -9 0
-16 -4 -16 -10z"/>
<path d="M7230 3582 c0 -4 9 -8 19 -8 11 0 17 4 15 8 -3 4 -12 8 -20 8 -8 0
-14 -4 -14 -8z"/>
<path d="M5015 9019 c-4 -6 -5 -12 -2 -15 2 -3 7 2 10 11 7 17 1 20 -8 4z"/>
<path d="M4778 8648 c-9 -5 -6 -8 9 -8 12 0 24 4 27 8 7 11 -19 11 -36 0z"/>
<path d="M6930 6110 c0 -5 5 -10 11 -10 5 0 7 5 4 10 -3 6 -8 10 -11 10 -2 0
-4 -4 -4 -10z"/>
<path d="M6860 6080 c0 -5 5 -10 11 -10 5 0 7 5 4 10 -3 6 -8 10 -11 10 -2 0
-4 -4 -4 -10z"/>
<path d="M6858 4894 c-54 -45 -58 -49 -33 -36 25 13 92 71 83 72 -3 0 -26 -16
-50 -36z"/>
<path d="M6665 4480 c-3 -5 -1 -10 4 -10 6 0 11 5 11 10 0 6 -2 10 -4 10 -3 0
-8 -4 -11 -10z"/>
</g>
</svg>
